<svg width="16" height="13" viewBox="0 0 16 13" fill="none" xmlns="http://www.w3.org/2000/svg">
<path fill-rule="evenodd" clip-rule="evenodd" d="M0 0.5H0.280855V12.5H0V0.5ZM8.14043 0.5H7.85957V12.5H8.14043V0.5ZM0.561274 0.5H1.12298V12.5H0.561274V0.5ZM1.4034 0.5H1.68426V12.5H1.4034V0.5ZM1.96511 0.5H2.80724V12.5H1.96511V0.5ZM6.45617 0.5H5.61404V12.5H6.45617V0.5ZM8.42128 0.5H9.26341V12.5H8.42128V0.5ZM3.64893 0.5H3.93022V12.5H3.64937L3.64893 0.5ZM13.4736 0.5H13.1928V12.5H13.4736V0.5ZM4.21021 0.5H4.77191V12.5H4.21021V0.5ZM14.3157 0.5H13.754V12.5H14.3157V0.5ZM5.05233 0.5H5.33319V12.5H5.05233V0.5ZM14.8775 0.5H14.5966V12.5H14.8775V0.5ZM15.1579 0.5H15.4387V12.5H15.1579V0.5ZM16 0.5H15.7196V12.5H16V0.5ZM3.08766 0.5H3.36851V12.5H3.08766V0.5ZM12.9123 0.5H12.6315V12.5H12.9123V0.5ZM7.2983 0.5H7.57872V12.5H7.2983V0.5ZM10.3864 0.5H10.1055V12.5H10.3864V0.5ZM10.6668 0.5H11.2285V12.5H10.6668V0.5ZM12.3506 0.5H11.5085V12.5H12.3506V0.5ZM6.73659 0.5H7.01745V12.5H6.73659V0.5ZM9.82468 0.5H9.54426V12.5H9.82468V0.5Z" fill="currentColor"/>
</svg>
