<svg width="27" height="26" viewBox="0 0 27 26" fill="none" xmlns="http://www.w3.org/2000/svg">
<path d="M25.7141 13.1559C25.6898 13.7972 25.4763 14.1484 25.1726 14.7057L22.1172 20.312C21.1916 22.0105 20.1328 24.16 18.267 24.16H8.44996C6.60466 24.16 5.52582 22.0111 4.61029 20.3312L1.5444 14.7057C1.24072 14.1484 1.02717 13.7972 1.0029 13.1559C0.962557 12.0897 1.34764 10.8153 1.85256 9.88885L4.61029 4.8287C5.52582 3.1488 6.60466 0.999969 8.44996 0.999969H18.267C20.1328 0.999969 21.1916 3.14948 22.1172 4.84797L24.8645 9.88885C25.3694 10.8153 25.7545 12.0897 25.7141 13.1559Z" stroke="currentColor" stroke-width="2" stroke-linecap="round" stroke-linejoin="round"/>
<path d="M18.267 12.58C18.267 15.4224 16.0694 17.7266 13.3585 17.7266C10.6476 17.7266 8.44996 15.4224 8.44996 12.58C8.44996 9.73754 10.6476 7.4333 13.3585 7.4333C16.0694 7.4333 18.267 9.73754 18.267 12.58Z" stroke="currentColor" stroke-width="2" stroke-linecap="round" stroke-linejoin="round"/>
<path d="M18.267 12.58C18.267 15.4224 16.0694 17.7266 13.3585 17.7266C10.6476 17.7266 8.44996 15.4224 8.44996 12.58C8.44996 9.73754 10.6476 7.4333 13.3585 7.4333C16.0694 7.4333 18.267 9.73754 18.267 12.58Z" stroke="currentColor" stroke-width="2" stroke-linecap="round" stroke-linejoin="round"/>
</svg>
