<svg width="18" height="19" viewBox="0 0 18 19" fill="none" xmlns="http://www.w3.org/2000/svg">
<path d="M8.11111 11.7222C8.11111 12.9489 10.1013 13.9445 12.5556 13.9445C15.0098 13.9445 17 12.9489 17 11.7222M1 7.27779C1 8.50446 2.99022 9.50001 5.44444 9.50001C6.44533 9.50001 7.36889 9.33468 8.11111 9.05557M1 10.3889C1 11.6156 2.99022 12.6111 5.44444 12.6111C6.44533 12.6111 7.368 12.4458 8.11111 12.1667M12.5556 10.3889C10.1013 10.3889 8.11111 9.39335 8.11111 8.16668C8.11111 6.94001 10.1013 5.94446 12.5556 5.94446C15.0098 5.94446 17 6.94001 17 8.16668C17 9.39335 15.0098 10.3889 12.5556 10.3889Z" stroke="currentColor" stroke-width="1.3" stroke-linecap="round" stroke-linejoin="round"/>
<path d="M1 3.72217V13.4999C1 14.7266 2.99022 15.7222 5.44444 15.7222C6.44533 15.7222 7.368 15.5568 8.11111 15.2777M8.11111 15.2777V8.16661M8.11111 15.2777C8.11111 16.5044 10.1013 17.4999 12.5556 17.4999C15.0098 17.4999 17 16.5044 17 15.2777V8.16661M9.88889 6.38883V3.72217" stroke="currentColor" stroke-width="1.3" stroke-linecap="round" stroke-linejoin="round"/>
<path d="M5.44444 5.94444C2.99022 5.94444 1 4.94889 1 3.72222C1 2.49556 2.99022 1.5 5.44444 1.5C7.89867 1.5 9.88889 2.49556 9.88889 3.72222C9.88889 4.94889 7.89867 5.94444 5.44444 5.94444Z" stroke="currentColor" stroke-width="1.3" stroke-linecap="round" stroke-linejoin="round"/>
</svg>
