<svg width="26" height="24" viewBox="0 0 26 24" fill="none" xmlns="http://www.w3.org/2000/svg">
<path d="M13.002 -6.10352e-05C13.599 -6.10352e-05 14.0831 0.483956 14.0831 1.08102V6.66938C14.0831 7.26645 13.599 7.75046 13.002 7.75046C12.4049 7.75046 11.9209 7.26645 11.9209 6.66938V1.08102C11.9209 0.483956 12.4049 -6.10352e-05 13.002 -6.10352e-05Z" fill="#1EB36E"/>
<path d="M7.41361 2.39495C8.01068 2.39495 8.49469 2.87897 8.49469 3.47603V6.66938C8.49469 7.26645 8.01068 7.75046 7.41361 7.75046C6.81655 7.75046 6.33253 7.26645 6.33253 6.66938V3.47603C6.33253 2.87897 6.81655 2.39495 7.41361 2.39495Z" fill="#1EB36E"/>
<path d="M18.5903 2.39495C19.1874 2.39495 19.6714 2.87897 19.6714 3.47603V6.66938C19.6714 7.26645 19.1874 7.75046 18.5903 7.75046C17.9933 7.75046 17.5093 7.26645 17.5093 6.66938V3.47603C17.5093 2.87897 17.9933 2.39495 18.5903 2.39495Z" fill="#1EB36E"/>
<path fill-rule="evenodd" clip-rule="evenodd" d="M13.002 12.7734C11.0822 12.7734 9.52588 14.3297 9.52588 16.2495C9.52588 18.1693 11.0822 19.7256 13.002 19.7256C14.9218 19.7256 16.4781 18.1693 16.4781 16.2495C16.4781 14.3297 14.9218 12.7734 13.002 12.7734ZM11.688 16.2495C11.688 15.5238 12.2763 14.9355 13.002 14.9355C13.7276 14.9355 14.3159 15.5238 14.3159 16.2495C14.3159 16.9751 13.7276 17.5634 13.002 17.5634C12.2763 17.5634 11.688 16.9751 11.688 16.2495Z" fill="#1EB36E"/>
<path fill-rule="evenodd" clip-rule="evenodd" d="M4.22026 8.49889H21.7837C23.8596 8.49889 25.5425 10.1818 25.5425 12.2577V20.2411C25.5425 22.3171 23.8596 23.9999 21.7837 23.9999H4.22026C2.14432 23.9999 0.461426 22.3171 0.461426 20.2411V12.2577C0.461426 10.1818 2.14431 8.49889 4.22026 8.49889ZM4.22026 10.6611H21.7837C22.6655 10.6611 23.3804 11.3759 23.3804 12.2577V20.2411C23.3804 21.1229 22.6655 21.8378 21.7837 21.8378H4.22026C3.33844 21.8378 2.62359 21.1229 2.62359 20.2411V12.2577C2.62359 11.3759 3.33844 10.6611 4.22026 10.6611Z" fill="#1EB36E"/>
</svg>
