<svg width="93" height="34" viewBox="0 0 93 34" fill="none" xmlns="http://www.w3.org/2000/svg">
<g clip-path="url(#clip0_159_1522)">
<path d="M13.0854 6.3455C9.61016 6.3455 3.72925 5.67657 3.72925 3.17275C3.72925 0.668934 9.61016 0 13.0854 0C16.5606 0 22.4415 0.668934 22.4415 3.17275C22.4415 5.67657 16.5606 6.3455 13.0854 6.3455ZM5.30376 3.17275C5.53273 3.65101 8.07956 4.78257 13.0854 4.78257C18.0912 4.78257 20.6381 3.65101 20.867 3.17275C20.6381 2.69449 18.0912 1.56293 13.0854 1.56293C8.07956 1.56293 5.53273 2.69449 5.30376 3.17275Z" fill="#FFCE36"/>
<path d="M35.3482 24.0692H32.7073V30.1114H34.7679V28.6454H35.3482C37.0199 28.6454 37.9452 27.7577 37.9452 26.3573C37.9452 24.9569 37.0168 24.0692 35.3482 24.0692ZM35.0973 27.0637H34.7334V25.7165H35.0973C35.6085 25.7165 35.8751 25.9415 35.8751 26.3885C35.8751 26.8355 35.6054 27.0606 35.0973 27.0606V27.0637Z" fill="#1FB268"/>
<path d="M43.8544 26.2166C43.8544 24.8444 42.857 24.066 41.2825 24.066H38.5789V30.1083H40.6395V28.3641H40.9249L41.8596 30.1083H44.052L42.8382 28.0546C43.4969 27.717 43.8513 27.1044 43.8513 26.2166H43.8544ZM41.0065 26.9762H40.6082V25.629H41.0065C41.5334 25.629 41.7938 25.854 41.7938 26.301C41.7938 26.748 41.5334 26.9731 41.0065 26.9731V26.9762Z" fill="#1FB268"/>
<path d="M46.6269 27.8139H48.8444V26.3292H46.6269V25.5696H49.0671V24.0692H44.6353V30.1114H49.1738V28.5923H46.6269V27.8139Z" fill="#1FB268"/>
<path d="M53.27 26.1916L51.7017 24.0692H49.8826V30.1114H51.9182V27.1763L52.856 28.5235H53.6934L54.6375 27.1575V30.1114H56.6731V24.0692H54.8539L53.27 26.1916Z" fill="#1FB268"/>
<path d="M59.6906 24.0692H57.6299V30.1114H59.6906V24.0692Z" fill="#1FB268"/>
<path d="M62.5384 24.0692L60.208 30.1114H62.3722L62.6419 29.2987H64.5113L64.7967 30.1114H66.9107L64.6054 24.0692H62.5353H62.5384ZM62.9462 28.014L63.586 26.1916L64.2008 28.014H62.9462Z" fill="#1FB268"/>
<path d="M70.1726 24.0692H67.4438V30.1114H70.1726C72.1047 30.1114 73.3499 28.9299 73.3499 27.0919C73.3499 25.2539 72.1015 24.0692 70.1726 24.0692ZM69.9123 28.2984H69.5045V25.8822H69.9123C70.8124 25.8822 71.2798 26.2979 71.2798 27.0919C71.2798 27.8858 70.8124 28.3016 69.9123 28.3016V28.2984Z" fill="#1FB268"/>
<path d="M77.5873 24.0692H75.5172L73.1868 30.1114H75.3509L75.6207 29.2987H77.49L77.7755 30.1114H79.8894L77.5841 24.0692H77.5873ZM75.9249 28.014L76.5648 26.1916L77.1795 28.014H75.9249Z" fill="#1FB268"/>
<path d="M32.7041 11.8095H39.5824V14.3071H35.919V15.9356H39.1339V18.3519H35.9472V21.3121H32.7041V11.8095Z" fill="#FFCE36"/>
<path d="M40.6457 11.8095H47.6181V14.1727H43.7759V15.3667H47.2637V17.7018H43.7759V18.924H47.7812V21.3121H40.6426V11.8095H40.6457Z" fill="#FFCE36"/>
<path d="M48.6938 19.1397L52.3729 14.4415L51.1184 14.454H48.8852V11.8064H56.3908V13.9632L52.6991 18.6614L54.1419 18.6489H56.5382V21.309H48.6938V19.1365V19.1397Z" fill="#FFCE36"/>
<path d="M57.793 11.8095H61.0361V21.3121H57.793V11.8095Z" fill="#FFCE36"/>
<path d="M62.5322 11.8095H65.0257L68.3347 16.1138V11.8095H71.3991V21.3121H68.9056L65.5966 16.9953V21.3121H62.5322V11.8095Z" fill="#FFCE36"/>
<path d="M78.3996 17.9456H76.1381V21.3121H72.895V11.8095H76.1381V15.026H78.3996V11.8095H81.6427V21.3121H78.3996V17.9456Z" fill="#FFCE36"/>
<path d="M86.1216 11.8095H89.3773L92.9999 21.3121H89.6753L89.2268 20.0368H86.2847L85.8613 21.3121H82.4551L86.1185 11.8095H86.1216ZM88.7375 18.0143L87.7714 15.1511L86.7646 18.0143H88.7406H88.7375Z" fill="#FFCE36"/>
<path d="M0 27.792C0 31.2148 2.79461 34 6.22906 34C9.66352 34 12.4581 31.2148 12.4581 27.792V21.584H6.2322C2.79461 21.584 0 24.3692 0 27.792Z" fill="#FFCE36"/>
<path d="M12.4581 14.1257C12.4581 10.7029 9.66352 7.91779 6.22906 7.91779C2.79461 7.91779 0 10.7029 0 14.1257C0 17.5486 2.79461 20.3337 6.22906 20.3337H12.4581V14.1257Z" fill="#1FB268"/>
<path d="M19.9417 34C23.3762 34 26.1708 31.2148 26.1708 27.792C26.1708 24.3692 23.3762 21.584 19.9417 21.584H13.7126V27.792C13.7126 31.2148 16.5073 34 19.9417 34Z" fill="#1FB268"/>
<path d="M26.1708 14.1257C26.1708 10.7029 23.3762 7.91779 19.9417 7.91779C16.5073 7.91779 13.7126 10.7029 13.7126 14.1257V20.3337H19.9386C23.3762 20.3337 26.1708 17.5486 26.1708 14.1257Z" fill="#FFCE36"/>
</g>
<defs>
<clipPath id="clip0_159_1522">
<rect width="93" height="34" fill="white"/>
</clipPath>
</defs>
</svg>
