<svg width="23" height="17" viewBox="0 0 23 17" fill="none" xmlns="http://www.w3.org/2000/svg">
<path fill-rule="evenodd" clip-rule="evenodd" d="M7.19675 8.50002C7.19675 6.35298 8.93727 4.61247 11.0843 4.61247C13.2313 4.61247 14.9719 6.35298 14.9719 8.50002C14.9719 10.647 13.2313 12.3876 11.0843 12.3876C8.93727 12.3876 7.19675 10.647 7.19675 8.50002ZM11.0843 6.21889C9.82447 6.21889 8.80318 7.24018 8.80318 8.50002C8.80318 9.75985 9.82447 10.7811 11.0843 10.7811C12.3441 10.7811 13.3654 9.75985 13.3654 8.50002C13.3654 7.24018 12.3441 6.21889 11.0843 6.21889Z" fill="currentColor"/>
<path fill-rule="evenodd" clip-rule="evenodd" d="M2.85944 0.5C2.10107 0.5 1.37376 0.801261 0.83751 1.33751C0.301261 1.87376 0 2.60107 0 3.35944V13.6406C0 14.3989 0.301261 15.1262 0.83751 15.6625C1.37376 16.1987 2.10107 16.5 2.85944 16.5H19.3092C20.0676 16.5 20.7949 16.1987 21.3312 15.6625C21.8674 15.1262 22.1687 14.3989 22.1687 13.6406V3.35944C22.1687 2.60107 21.8674 1.87376 21.3312 1.33751C20.7949 0.801261 20.0676 0.5 19.3092 0.5H2.85944ZM2.85944 2.10643C2.52712 2.10643 2.20841 2.23844 1.97342 2.47342C1.73844 2.70841 1.60643 3.02712 1.60643 3.35944V4.5135C2.18326 4.36916 2.71569 4.0707 3.1432 3.6432C3.5707 3.21569 3.86916 2.68326 4.0135 2.10643H2.85944ZM5.65283 2.10643C5.48624 3.11229 5.00945 4.04878 4.27911 4.77911C3.54878 5.50945 2.61229 5.98624 1.60643 6.15283V13.6406C1.60643 13.9729 1.73844 14.2916 1.97342 14.5266C2.20841 14.7616 2.52712 14.8936 2.85944 14.8936H16.5158C16.6824 13.8877 17.1592 12.9512 17.8896 12.2209C18.6199 11.4906 19.5564 11.0138 20.5622 10.8472V3.35944C20.5622 3.02712 20.4302 2.70841 20.1952 2.47342C19.9603 2.23844 19.6416 2.10643 19.3092 2.10643H5.65283ZM20.5622 12.4865C19.9854 12.6308 19.453 12.9293 19.0255 13.3568C18.598 13.7843 18.2995 14.3167 18.1552 14.8936H19.3092C19.6416 14.8936 19.9603 14.7616 20.1952 14.5266C20.4302 14.2916 20.5622 13.9729 20.5622 13.6406V12.4865Z" fill="currentColor"/>
</svg>
