<svg width="16" height="17" viewBox="0 0 16 17" fill="none" xmlns="http://www.w3.org/2000/svg">
<path fill-rule="evenodd" clip-rule="evenodd" d="M8.34891 9.70797L10.7566 12.1157C11.3246 12.6836 11.9325 12.8276 12.6604 12.8276L9.68475 15.7952C9.2348 16.2446 8.62488 16.497 7.98895 16.497C7.35302 16.497 6.7431 16.2446 6.29315 15.7952L3.32551 12.8356C4.7258 12.8356 5.15586 12.4053 5.42824 12.1327L5.43726 12.1237L7.85297 9.70797C7.94096 9.61998 8.04494 9.60398 8.10094 9.60398C8.15693 9.60398 8.26092 9.61998 8.34891 9.70797ZM7.85297 7.29225L5.43726 4.87654C5.43196 4.87124 5.42657 4.86585 5.4211 4.86036C5.17038 4.60895 4.72725 4.16463 3.3495 4.16463L6.31715 1.20498C6.7671 0.755591 7.37702 0.503174 8.01295 0.503174C8.64888 0.503174 9.2588 0.755591 9.70875 1.20498L12.6844 4.17263C11.9565 4.17263 11.3086 4.30861 10.7406 4.90054L8.34891 7.29225C8.28492 7.35625 8.18893 7.39624 8.10094 7.39624C8.01295 7.39624 7.91696 7.35625 7.85297 7.29225ZM13.4843 4.97255L15.2841 6.78033C15.7396 7.23415 15.997 7.84983 16 8.49283C16.003 9.13583 15.7513 9.75388 15.3001 10.2119L13.5003 12.0197H12.4924C12.0525 12.0197 11.6365 11.8437 11.3325 11.5398L8.92483 9.13205C8.70085 8.90808 8.40489 8.79609 8.10892 8.79609C7.81296 8.79609 7.51699 8.90808 7.29302 9.13205L4.87731 11.5478C4.56534 11.8517 4.14939 12.0277 3.71745 12.0277H2.53359L0.701805 10.1879C0.252417 9.73798 0 9.12805 0 8.49213C0 7.8562 0.252417 7.24628 0.701805 6.79633L2.53359 4.95655H3.70945C4.14939 4.95655 4.56534 5.13253 4.86931 5.43649L7.28502 7.8602C7.50444 8.07176 7.79616 8.19187 8.10092 8.19616C8.39689 8.19616 8.69285 8.08418 8.91683 7.8602L11.3165 5.46049C11.6125 5.14853 12.0445 4.97255 12.4764 4.97255H13.4843Z" fill="currentColor"/>
</svg>
