<svg width="25" height="24" viewBox="0 0 25 24" fill="none" xmlns="http://www.w3.org/2000/svg">
<path d="M13.202 10.7999H21.542C21.246 8.59994 20.33 6.73594 18.794 5.20794C17.266 3.67994 15.402 2.76394 13.202 2.45994M10.802 21.5399V2.45994C8.40195 2.76394 6.40195 3.81994 4.80195 5.62794C3.20195 7.43594 2.40195 9.55994 2.40195 11.9999C2.40195 14.4399 3.20195 16.5639 4.80195 18.3719C6.40195 20.1879 8.40195 21.2439 10.802 21.5399ZM13.202 21.5399C15.402 21.2599 17.274 20.3519 18.818 18.8159C20.354 17.2719 21.262 15.3999 21.542 13.1999H13.202M12.002 23.9999C10.346 23.9999 8.78595 23.6839 7.32195 23.0519C5.86595 22.4279 4.59795 21.5759 3.51795 20.4959C2.43795 19.4159 1.58195 18.1439 0.949953 16.6799C0.317953 15.2239 0.00195312 13.6639 0.00195312 11.9999C0.00195312 10.3359 0.317953 8.77594 0.949953 7.31994C1.58195 5.86394 2.43795 4.59594 3.51795 3.51594C4.59795 2.43594 5.86595 1.57994 7.32195 0.947939C8.78595 0.315939 10.346 -6.10352e-05 12.002 -6.10352e-05C13.658 -6.10352e-05 15.214 0.315939 16.67 0.947939C18.118 1.57994 19.386 2.43994 20.474 3.52794C21.57 4.61594 22.43 5.88394 23.054 7.33194C23.686 8.78794 24.002 10.3439 24.002 11.9999C24.002 13.6399 23.686 15.1919 23.054 16.6559C22.43 18.1119 21.578 19.3839 20.498 20.4719C19.418 21.5679 18.146 22.4279 16.682 23.0519C15.226 23.6839 13.666 23.9999 12.002 23.9999Z" fill="#1EB36E"/>
</svg>
