<svg width="20" height="20" viewBox="0 0 20 20" fill="none" xmlns="http://www.w3.org/2000/svg">
<path d="M12.1458 2.72109C11.9244 2.34871 11.6099 2.04028 11.2334 1.82607C10.8568 1.61186 10.431 1.49923 9.99776 1.49923C9.56453 1.49923 9.13874 1.61186 8.76216 1.82607C8.38559 2.04028 8.07117 2.34871 7.84976 2.72109C7.40422 2.47981 6.92973 2.29633 6.43776 2.17509C6.77344 1.51988 7.28342 0.970023 7.91154 0.586061C8.53967 0.2021 9.26158 -0.00106812 9.99776 -0.00106812C10.734 -0.00106812 11.4559 0.2021 12.084 0.586061C12.7121 0.970023 13.2221 1.51988 13.5578 2.17509C13.0658 2.29632 12.5913 2.4798 12.1458 2.72109ZM7.38176 5.43809C7.91925 5.25249 8.4751 5.1251 9.03976 5.05809C8.61433 4.47475 8.06761 3.99047 7.43719 3.63854C6.80677 3.28661 6.10761 3.07538 5.38779 3.01939C4.66797 2.96339 3.94455 3.06395 3.26729 3.31415C2.59004 3.56435 1.975 3.95826 1.46447 4.46879C0.953937 4.97932 0.560029 5.59436 0.309827 6.27162C0.0596248 6.94888 -0.0409353 7.67229 0.0150612 8.39211C0.0710578 9.11194 0.282282 9.8111 0.634211 10.4415C0.98614 11.0719 1.47042 11.6187 2.05376 12.0441C2.12104 11.4791 2.24877 10.9229 2.43476 10.3851C1.81441 9.72195 1.47607 8.84367 1.4912 7.93573C1.50633 7.02779 1.87374 6.16127 2.51584 5.51916C3.15794 4.87706 4.02446 4.50965 4.9324 4.49452C5.84035 4.4794 6.71863 4.81774 7.38176 5.43809ZM17.9418 12.0431C18.5251 11.6177 19.0094 11.0709 19.3613 10.4405C19.7132 9.8101 19.9245 9.11094 19.9805 8.39111C20.0365 7.67129 19.9359 6.94788 19.6857 6.27062C19.4355 5.59336 19.0416 4.97832 18.5311 4.46779C18.0205 3.95726 17.4055 3.56335 16.7282 3.31315C16.051 3.06295 15.3276 2.96239 14.6077 3.01839C13.8879 3.07438 13.1888 3.28561 12.5583 3.63754C11.9279 3.98947 11.3812 4.47375 10.9558 5.05709C11.5205 5.12444 12.0763 5.25217 12.6138 5.43809C13.2769 4.81774 14.1552 4.4794 15.0631 4.49452C15.9711 4.50965 16.8376 4.87706 17.4797 5.51916C18.1218 6.16127 18.4892 7.02779 18.5043 7.93573C18.5195 8.84367 18.1811 9.72195 17.5608 10.3851C17.7438 10.9151 17.8738 11.4701 17.9418 12.0431ZM7.49776 11.2511C7.49776 11.0522 7.57678 10.8614 7.71743 10.7208C7.85809 10.5801 8.04885 10.5011 8.24776 10.5011H12.4978C12.6501 10.5012 12.7988 10.5477 12.9241 10.6344C13.0494 10.7211 13.1453 10.844 13.199 10.9865C13.2528 11.1291 13.2618 11.2846 13.225 11.4325C13.1881 11.5803 13.1071 11.7134 12.9928 11.8141V11.8151L12.9798 11.8261L12.9268 11.8761C12.5932 12.2024 12.2841 12.5526 12.0018 12.9241C11.4448 13.6551 10.8138 14.6941 10.4718 15.9481C10.4459 16.0432 10.4016 16.1322 10.3413 16.2102C10.281 16.2881 10.2059 16.3534 10.1204 16.4023C10.0349 16.4513 9.94056 16.4829 9.84282 16.4954C9.74508 16.5079 9.64584 16.501 9.55077 16.4751C9.45569 16.4492 9.36664 16.4049 9.2887 16.3446C9.21076 16.2843 9.14546 16.2093 9.09652 16.1237C9.04758 16.0382 9.01597 15.9439 9.00349 15.8461C8.991 15.7484 8.99789 15.6492 9.02376 15.5541C9.43176 14.0581 10.1758 12.8471 10.8068 12.0161L10.8178 12.0011H8.24776C8.04885 12.0011 7.85809 11.9221 7.71743 11.7814C7.57678 11.6408 7.49776 11.45 7.49776 11.2511ZM9.99776 20.0011C11.8543 20.0011 13.6348 19.2636 14.9475 17.9508C16.2603 16.6381 16.9978 14.8576 16.9978 13.0011C16.9978 11.1446 16.2603 9.3641 14.9475 8.05134C13.6348 6.73859 11.8543 6.00109 9.99776 6.00109C8.14125 6.00109 6.36077 6.73859 5.04802 8.05134C3.73526 9.3641 2.99776 11.1446 2.99776 13.0011C2.99776 14.8576 3.73526 16.6381 5.04802 17.9508C6.36077 19.2636 8.14125 20.0011 9.99776 20.0011ZM9.99776 18.5011C8.53907 18.5011 7.14013 17.9216 6.10868 16.8902C5.07723 15.8587 4.49776 14.4598 4.49776 13.0011C4.49776 11.5424 5.07723 10.1435 6.10868 9.112C7.14013 8.08055 8.53907 7.50109 9.99776 7.50109C11.4565 7.50109 12.8554 8.08055 13.8869 9.112C14.9183 10.1435 15.4978 11.5424 15.4978 13.0011C15.4978 14.4598 14.9183 15.8587 13.8869 16.8902C12.8554 17.9216 11.4565 18.5011 9.99776 18.5011Z" fill="#1EB36E"/>
</svg>
