<svg width="17" height="17" viewBox="0 0 17 17" fill="none" xmlns="http://www.w3.org/2000/svg">
<path d="M3.09676 6.56475C3.09676 6.20845 3.38561 5.9196 3.74191 5.9196H6.83861C7.19491 5.9196 7.48376 6.20845 7.48376 6.56475C7.48376 6.92105 7.19491 7.2099 6.83861 7.2099H3.74191C3.38561 7.2099 3.09676 6.92105 3.09676 6.56475Z" fill="#1EB36E"/>
<path d="M13.025 9.0163C12.6687 9.0163 12.3798 9.30515 12.3798 9.66145C12.3798 10.0178 12.6687 10.3066 13.025 10.3066H13.0332C13.3895 10.3066 13.6784 10.0178 13.6784 9.66145C13.6784 9.30515 13.3895 9.0163 13.0332 9.0163H13.025Z" fill="#1EB36E"/>
<path fill-rule="evenodd" clip-rule="evenodd" d="M3.38529 2.93042C3.38063 2.93351 3.37602 2.93665 3.37147 2.93984L3.3547 2.94208C2.43998 3.0651 1.68943 3.32566 1.09629 3.9192C0.502758 4.51233 0.242201 5.26288 0.119175 6.1776C-2.60485e-05 7.06388 -1.4352e-05 8.19446 3.24597e-07 9.61335V9.70955C-1.4352e-05 11.1284 -2.60485e-05 12.259 0.119175 13.1453C0.242188 14.0599 0.502701 14.8104 1.0961 15.4035C1.68926 15.9972 2.43988 16.2578 3.3547 16.3808C4.24098 16.5 5.37156 16.5 6.79045 16.5H9.20917C10.6281 16.5 11.7586 16.5 12.6449 16.3808C13.5596 16.2578 14.3101 15.9973 14.9032 15.4038C15.6289 14.6789 15.8616 13.7127 15.9465 12.4833C16.3957 12.2715 16.733 11.8449 16.7707 11.3051L16.771 11.3004C16.7738 11.2546 16.7738 11.2045 16.7738 11.1583V8.16471C16.7738 8.11852 16.7738 8.0683 16.771 8.02254L16.7706 8.01655C16.7319 7.47807 16.3954 7.05133 15.9462 6.83958C15.861 5.61038 15.629 4.64394 14.903 3.91891C14.31 3.32558 13.5595 3.06508 12.6449 2.94208L12.6282 2.93984C12.6236 2.93665 12.619 2.93351 12.6143 2.93042L9.72282 1.01277L9.71801 1.00964C9.20668 0.677042 8.6098 0.5 7.99982 0.5C7.38983 0.5 6.79294 0.67702 6.28161 1.00962L3.38529 2.93042ZM6.9874 2.0898L5.87997 2.82423C6.16933 2.8229 6.47266 2.8229 6.79046 2.8229H9.20917C9.52696 2.8229 9.8303 2.8229 10.1197 2.82423L9.01224 2.0898C8.71077 1.89433 8.35915 1.79029 7.99982 1.79029C7.64049 1.79029 7.28886 1.89433 6.9874 2.0898ZM14.6397 6.69379C14.5491 5.70645 14.353 5.19313 13.9912 4.83185L13.9908 4.83138C13.6774 4.51771 13.2447 4.32465 12.4729 4.22086C11.6827 4.11457 10.639 4.1132 9.16107 4.1132H6.83855C5.3606 4.1132 4.31696 4.11457 3.52669 4.22086C2.75497 4.32465 2.32225 4.51771 2.00886 4.83138L2.00847 4.83177C1.69481 5.14516 1.50175 5.57787 1.39795 6.34959C1.29166 7.13986 1.29029 8.1835 1.29029 9.66145C1.29029 11.1394 1.29166 12.183 1.39795 12.9733C1.50175 13.745 1.69481 14.1777 2.00847 14.4911L2.00886 14.4915C2.32225 14.8052 2.75497 14.9983 3.52669 15.102C4.31696 15.2083 5.3606 15.2097 6.83855 15.2097H9.16107C10.639 15.2097 11.6827 15.2083 12.4729 15.102C13.2447 14.9983 13.6774 14.8052 13.9908 14.4915L13.9912 14.4911C14.353 14.1297 14.5496 13.6162 14.64 12.6291H13.21C11.5192 12.6291 10.0643 11.3448 10.0643 9.66146C10.0643 7.97816 11.5184 6.69379 13.2108 6.69379H14.6397ZM15.2949 7.98424C15.2794 7.98409 15.259 7.98408 15.2252 7.98408H13.2108C12.1393 7.98408 11.3546 8.77913 11.3546 9.66146C11.3546 10.5438 12.1401 11.3388 13.21 11.3388H15.2252C15.259 11.3388 15.2794 11.3388 15.2949 11.3387L15.3075 11.3385L15.3117 11.3384C15.3717 11.3343 15.4173 11.3108 15.4458 11.2843C15.4722 11.2598 15.4811 11.2364 15.4832 11.2187L15.4833 11.209L15.4835 11.1799L15.4835 8.17736C15.4835 8.1462 15.4835 8.12776 15.4833 8.11392L15.4832 8.1055C15.4784 8.07285 15.4373 7.99303 15.3117 7.98455C15.3101 7.98449 15.3053 7.98434 15.2949 7.98424Z" fill="#1EB36E"/>
</svg>
